<mxfile host="app.diagrams.net" modified="2024-04-23T07:41:44.084Z" agent="Mozilla/5.0 (Windows NT 10.0; Win64; x64) AppleWebKit/537.36 (KHTML, like Gecko) Chrome/123.0.0.0 Safari/537.36" version="24.2.8" etag="9OL_ntGDb-F6o9Wx8v6T" type="github">
  <diagram name="Page-1" id="pXknl_l6DxN8BwnQvJcl">
    <mxGraphModel>
      <root>
        <mxCell id="0" />
        <mxCell id="1" parent="0" />
      </root>
    </mxGraphModel>
  </diagram>
</mxfile>
